{
    "asset" : {
        "generator" : "Khronos glTF Blender I/O v0.9.36",
        "version" : "2.0"
    },
    "scene" : 0,
    "scenes" : [
        {
            "name" : "Scene",
            "nodes" : [
                5,
                6,
                7,
                8,
                9,
                11,
                12
            ]
        }
    ],
    "nodes" : [
        {
            "mesh" : 0,
            "name" : "BackPlane",
            "translation" : [
                0,
                0,
                -1
            ]
        },
        {
            "mesh" : 1,
            "name" : "BottomPlane",
            "translation" : [
                0,
                0,
                -1
            ]
        },
        {
            "mesh" : 2,
            "name" : "LeftPlane",
            "translation" : [
                0,
                0,
                -1
            ]
        },
        {
            "mesh" : 3,
            "name" : "RightPlane",
            "translation" : [
                0,
                0,
                -1
            ]
        },
        {
            "mesh" : 4,
            "name" : "TopPlane",
            "translation" : [
                0,
                0,
                -1
            ]
        },
        {
            "children" : [
                0,
                1,
                2,
                3,
                4
            ],
            "name" : "Walls",
            "rotation" : [
                0.7071068286895752,
                0,
                0,
                0.7071067094802856
            ]
        },
        {
            "mesh" : 5,
            "name" : "Cuboid",
            "rotation" : [
                0.653281569480896,
                0.2705981135368347,
                -0.27059805393218994,
                0.6532814502716064
            ],
            "scale" : [
                0.20000000298023224,
                0.20000000298023224,
                0.40000006556510925
            ],
            "translation" : [
                0.05431129038333893,
                0.4000000059604645,
                0.5508811473846436
            ]
        },
        {
            "mesh" : 6,
            "name" : "LightFrame",
            "rotation" : [
                0.7071068286895752,
                0,
                0,
                0.7071067094802856
            ],
            "scale" : [
                0.20000000298023224,
                0.20000003278255463,
                0.020000001415610313
            ],
            "translation" : [
                0,
                1.9800002574920654,
                0
            ]
        },
        {
            "mesh" : 7,
            "name" : "Light",
            "rotation" : [
                0.7071068286895752,
                0,
                0,
                0.7071067094802856
            ],
            "scale" : [
                0.20000000298023224,
                0.20000003278255463,
                0.020000001415610313
            ],
            "translation" : [
                0,
                1.9800002574920654,
                0
            ]
        },
        {
            "mesh" : 8,
            "name" : "Sphere",
            "scale" : [
                0.3499999940395355,
                0.3499999940395355,
                0.3499999940395355
            ],
            "translation" : [
                -0.4483020007610321,
                0.3499999940395355,
                -0.02329999953508377
            ]
        },
        {
            "camera" : 0,
            "name" : "Camera_Orientation",
            "rotation" : [
                -0.7071067690849304,
                0,
                0,
                0.7071067690849304
            ]
        },
        {
            "children" : [
                10
            ],
            "name" : "Camera",
            "rotation" : [
                0.4777143895626068,
                0.5213338136672974,
                -0.4777144193649292,
                0.5213338136672974
            ],
            "translation" : [
                2.75,
                1.2000000476837158,
                0
            ]
        },
        {
            "mesh" : 9,
            "name" : "StanfordBunny",
            "rotation" : [
                0.6408563852310181,
                0.29883623123168945,
                -0.29883626103401184,
                0.6408563852310181
            ],
            "scale" : [
                5,
                5,
                5
            ],
            "translation" : [
                0.19529999792575836,
                -0.17319999635219574,
                -0.6908000111579895
            ]
        }
    ],
    "cameras" : [
        {
            "name" : "Camera",
            "perspective" : {
                "yfov" : 1.1811122742578206,
                "zfar" : 1000,
                "znear" : 0.10000000149011612
            },
            "type" : "perspective"
        }
    ],
    "materials" : [
        {
            "doubleSided" : true,
            "name" : "White",
            "pbrMetallicRoughness" : {
                "baseColorFactor" : [
                    0.800000011920929,
                    0.800000011920929,
                    0.800000011920929,
                    1
                ],
                "metallicFactor" : 0,
                "roughnessFactor" : 1
            }
        },
        {
            "doubleSided" : true,
            "name" : "Green_COLOR_0",
            "pbrMetallicRoughness" : {
                "metallicFactor" : 0,
                "roughnessFactor" : 1
            }
        },
        {
            "doubleSided" : true,
            "name" : "Red",
            "pbrMetallicRoughness" : {
                "baseColorFactor" : [
                    0.7874122262001038,
                    0.027210915461182594,
                    0.027210915461182594,
                    1
                ],
                "metallicFactor" : 0,
                "roughnessFactor" : 1
            }
        },
        {
            "doubleSided" : true,
            "emissiveFactor" : [
                1,
                1,
                1
            ],
            "name" : "EmissiveWhite",
            "pbrMetallicRoughness" : {
                "baseColorFactor" : [
                    1,
                    1,
                    1,
                    1
                ],
                "metallicFactor" : 1,
                "roughnessFactor" : 1
            }
        },
        {
            "doubleSided" : true,
            "name" : "Mirror",
            "pbrMetallicRoughness" : {
                "baseColorFactor" : [
                    1,
                    1,
                    1,
                    1
                ],
                "metallicFactor" : 1,
                "roughnessFactor" : 0
            }
        }
    ],
    "meshes" : [
        {
            "name" : "BackPlane",
            "primitives" : [
                {
                    "attributes" : {
                        "POSITION" : 0,
                        "NORMAL" : 1,
                        "TEXCOORD_0" : 2
                    },
                    "indices" : 3,
                    "material" : 0
                }
            ]
        },
        {
            "name" : "BottomPlane",
            "primitives" : [
                {
                    "attributes" : {
                        "POSITION" : 4,
                        "NORMAL" : 5,
                        "TEXCOORD_0" : 6
                    },
                    "indices" : 3,
                    "material" : 0
                }
            ]
        },
        {
            "name" : "LeftPlane",
            "primitives" : [
                {
                    "attributes" : {
                        "POSITION" : 7,
                        "NORMAL" : 8,
                        "TEXCOORD_0" : 9,
                        "COLOR_0" : 10
                    },
                    "indices" : 3,
                    "material" : 1
                }
            ]
        },
        {
            "name" : "RightPlane",
            "primitives" : [
                {
                    "attributes" : {
                        "POSITION" : 11,
                        "NORMAL" : 12,
                        "TEXCOORD_0" : 13
                    },
                    "indices" : 3,
                    "material" : 2
                }
            ]
        },
        {
            "name" : "TopPlane",
            "primitives" : [
                {
                    "attributes" : {
                        "POSITION" : 14,
                        "NORMAL" : 15,
                        "TEXCOORD_0" : 16
                    },
                    "indices" : 3,
                    "material" : 0
                }
            ]
        },
        {
            "name" : "Cuboid",
            "primitives" : [
                {
                    "attributes" : {
                        "POSITION" : 17,
                        "NORMAL" : 18,
                        "TEXCOORD_0" : 19
                    },
                    "indices" : 20,
                    "material" : 0
                }
            ]
        },
        {
            "name" : "Frame",
            "primitives" : [
                {
                    "attributes" : {
                        "POSITION" : 21,
                        "NORMAL" : 22,
                        "TEXCOORD_0" : 23
                    },
                    "indices" : 24,
                    "material" : 0
                }
            ]
        },
        {
            "name" : "Light.001",
            "primitives" : [
                {
                    "attributes" : {
                        "POSITION" : 25,
                        "NORMAL" : 26,
                        "TEXCOORD_0" : 27
                    },
                    "indices" : 28,
                    "material" : 3
                }
            ]
        },
        {
            "name" : "Sphere.003",
            "primitives" : [
                {
                    "attributes" : {
                        "POSITION" : 29,
                        "NORMAL" : 30,
                        "TEXCOORD_0" : 31
                    },
                    "indices" : 32,
                    "material" : 4
                }
            ]
        },
        {
            "name" : "bunny.001",
            "primitives" : [
                {
                    "attributes" : {
                        "POSITION" : 33,
                        "NORMAL" : 34
                    },
                    "indices" : 35,
                    "material" : 0
                }
            ]
        }
    ],
    "accessors" : [
        {
            "bufferView" : 0,
            "componentType" : 5126,
            "count" : 4,
            "max" : [
                -1,
                1,
                1
            ],
            "min" : [
                -1,
                -1,
                -1
            ],
            "type" : "VEC3"
        },
        {
            "bufferView" : 1,
            "componentType" : 5126,
            "count" : 4,
            "type" : "VEC3"
        },
        {
            "bufferView" : 2,
            "componentType" : 5126,
            "count" : 4,
            "type" : "VEC2"
        },
        {
            "bufferView" : 3,
            "componentType" : 5123,
            "count" : 6,
            "type" : "SCALAR"
        },
        {
            "bufferView" : 4,
            "componentType" : 5126,
            "count" : 4,
            "max" : [
                1,
                1,
                1
            ],
            "min" : [
                -1,
                -1,
                1
            ],
            "type" : "VEC3"
        },
        {
            "bufferView" : 5,
            "componentType" : 5126,
            "count" : 4,
            "type" : "VEC3"
        },
        {
            "bufferView" : 6,
            "componentType" : 5126,
            "count" : 4,
            "type" : "VEC2"
        },
        {
            "bufferView" : 7,
            "componentType" : 5126,
            "count" : 4,
            "max" : [
                1,
                1,
                1
            ],
            "min" : [
                -1,
                1,
                -1
            ],
            "type" : "VEC3"
        },
        {
            "bufferView" : 8,
            "componentType" : 5126,
            "count" : 4,
            "type" : "VEC3"
        },
        {
            "bufferView" : 9,
            "componentType" : 5126,
            "count" : 4,
            "type" : "VEC2"
        },
        {
            "bufferView" : 10,
            "componentType" : 5126,
            "count" : 4,
            "type" : "VEC4"
        },
        {
            "bufferView" : 11,
            "componentType" : 5126,
            "count" : 4,
            "max" : [
                1,
                -1,
                1
            ],
            "min" : [
                -1,
                -1,
                -1
            ],
            "type" : "VEC3"
        },
        {
            "bufferView" : 12,
            "componentType" : 5126,
            "count" : 4,
            "type" : "VEC3"
        },
        {
            "bufferView" : 13,
            "componentType" : 5126,
            "count" : 4,
            "type" : "VEC2"
        },
        {
            "bufferView" : 14,
            "componentType" : 5126,
            "count" : 4,
            "max" : [
                1,
                1,
                -1
            ],
            "min" : [
                -1,
                -1,
                -1
            ],
            "type" : "VEC3"
        },
        {
            "bufferView" : 15,
            "componentType" : 5126,
            "count" : 4,
            "type" : "VEC3"
        },
        {
            "bufferView" : 16,
            "componentType" : 5126,
            "count" : 4,
            "type" : "VEC2"
        },
        {
            "bufferView" : 17,
            "componentType" : 5126,
            "count" : 24,
            "max" : [
                1,
                1,
                1
            ],
            "min" : [
                -1,
                -1,
                -1
            ],
            "type" : "VEC3"
        },
        {
            "bufferView" : 18,
            "componentType" : 5126,
            "count" : 24,
            "type" : "VEC3"
        },
        {
            "bufferView" : 19,
            "componentType" : 5126,
            "count" : 24,
            "type" : "VEC2"
        },
        {
            "bufferView" : 20,
            "componentType" : 5123,
            "count" : 36,
            "type" : "SCALAR"
        },
        {
            "bufferView" : 21,
            "componentType" : 5126,
            "count" : 44,
            "max" : [
                1,
                1,
                1
            ],
            "min" : [
                -1,
                -1,
                -1
            ],
            "type" : "VEC3"
        },
        {
            "bufferView" : 22,
            "componentType" : 5126,
            "count" : 44,
            "type" : "VEC3"
        },
        {
            "bufferView" : 23,
            "componentType" : 5126,
            "count" : 44,
            "type" : "VEC2"
        },
        {
            "bufferView" : 24,
            "componentType" : 5123,
            "count" : 54,
            "type" : "SCALAR"
        },
        {
            "bufferView" : 25,
            "componentType" : 5126,
            "count" : 6,
            "max" : [
                0.9051275253295898,
                0.9051275253295898,
                1
            ],
            "min" : [
                -0.9051275253295898,
                -0.9051275253295898,
                1
            ],
            "type" : "VEC3"
        },
        {
            "bufferView" : 26,
            "componentType" : 5126,
            "count" : 6,
            "type" : "VEC3"
        },
        {
            "bufferView" : 27,
            "componentType" : 5126,
            "count" : 6,
            "type" : "VEC2"
        },
        {
            "bufferView" : 28,
            "componentType" : 5123,
            "count" : 6,
            "type" : "SCALAR"
        },
        {
            "bufferView" : 29,
            "componentType" : 5126,
            "count" : 2143,
            "max" : [
                1.0000005960464478,
                1,
                1.000001072883606
            ],
            "min" : [
                -1.000000238418579,
                -1,
                -1
            ],
            "type" : "VEC3"
        },
        {
            "bufferView" : 30,
            "componentType" : 5126,
            "count" : 2143,
            "type" : "VEC3"
        },
        {
            "bufferView" : 31,
            "componentType" : 5126,
            "count" : 2143,
            "type" : "VEC2"
        },
        {
            "bufferView" : 32,
            "componentType" : 5123,
            "count" : 11904,
            "type" : "SCALAR"
        },
        {
            "bufferView" : 33,
            "componentType" : 5126,
            "count" : 2503,
            "max" : [
                0.06077880039811134,
                0.05871463939547539,
                -0.033309899270534515
            ],
            "min" : [
                -0.09438042342662811,
                -0.0616791695356369,
                -0.18699601292610168
            ],
            "type" : "VEC3"
        },
        {
            "bufferView" : 34,
            "componentType" : 5126,
            "count" : 2503,
            "type" : "VEC3"
        },
        {
            "bufferView" : 35,
            "componentType" : 5123,
            "count" : 14904,
            "type" : "SCALAR"
        }
    ],
    "bufferViews" : [
        {
            "buffer" : 0,
            "byteLength" : 48,
            "byteOffset" : 0
        },
        {
            "buffer" : 0,
            "byteLength" : 48,
            "byteOffset" : 48
        },
        {
            "buffer" : 0,
            "byteLength" : 32,
            "byteOffset" : 96
        },
        {
            "buffer" : 0,
            "byteLength" : 12,
            "byteOffset" : 128
        },
        {
            "buffer" : 0,
            "byteLength" : 48,
            "byteOffset" : 140
        },
        {
            "buffer" : 0,
            "byteLength" : 48,
            "byteOffset" : 188
        },
        {
            "buffer" : 0,
            "byteLength" : 32,
            "byteOffset" : 236
        },
        {
            "buffer" : 0,
            "byteLength" : 48,
            "byteOffset" : 268
        },
        {
            "buffer" : 0,
            "byteLength" : 48,
            "byteOffset" : 316
        },
        {
            "buffer" : 0,
            "byteLength" : 32,
            "byteOffset" : 364
        },
        {
            "buffer" : 0,
            "byteLength" : 64,
            "byteOffset" : 396
        },
        {
            "buffer" : 0,
            "byteLength" : 48,
            "byteOffset" : 460
        },
        {
            "buffer" : 0,
            "byteLength" : 48,
            "byteOffset" : 508
        },
        {
            "buffer" : 0,
            "byteLength" : 32,
            "byteOffset" : 556
        },
        {
            "buffer" : 0,
            "byteLength" : 48,
            "byteOffset" : 588
        },
        {
            "buffer" : 0,
            "byteLength" : 48,
            "byteOffset" : 636
        },
        {
            "buffer" : 0,
            "byteLength" : 32,
            "byteOffset" : 684
        },
        {
            "buffer" : 0,
            "byteLength" : 288,
            "byteOffset" : 716
        },
        {
            "buffer" : 0,
            "byteLength" : 288,
            "byteOffset" : 1004
        },
        {
            "buffer" : 0,
            "byteLength" : 192,
            "byteOffset" : 1292
        },
        {
            "buffer" : 0,
            "byteLength" : 72,
            "byteOffset" : 1484
        },
        {
            "buffer" : 0,
            "byteLength" : 528,
            "byteOffset" : 1556
        },
        {
            "buffer" : 0,
            "byteLength" : 528,
            "byteOffset" : 2084
        },
        {
            "buffer" : 0,
            "byteLength" : 352,
            "byteOffset" : 2612
        },
        {
            "buffer" : 0,
            "byteLength" : 108,
            "byteOffset" : 2964
        },
        {
            "buffer" : 0,
            "byteLength" : 72,
            "byteOffset" : 3072
        },
        {
            "buffer" : 0,
            "byteLength" : 72,
            "byteOffset" : 3144
        },
        {
            "buffer" : 0,
            "byteLength" : 48,
            "byteOffset" : 3216
        },
        {
            "buffer" : 0,
            "byteLength" : 12,
            "byteOffset" : 3264
        },
        {
            "buffer" : 0,
            "byteLength" : 25716,
            "byteOffset" : 3276
        },
        {
            "buffer" : 0,
            "byteLength" : 25716,
            "byteOffset" : 28992
        },
        {
            "buffer" : 0,
            "byteLength" : 17144,
            "byteOffset" : 54708
        },
        {
            "buffer" : 0,
            "byteLength" : 23808,
            "byteOffset" : 71852
        },
        {
            "buffer" : 0,
            "byteLength" : 30036,
            "byteOffset" : 95660
        },
        {
            "buffer" : 0,
            "byteLength" : 30036,
            "byteOffset" : 125696
        },
        {
            "buffer" : 0,
            "byteLength" : 29808,
            "byteOffset" : 155732
        }
    ],
    "buffers" : [
        {
            "byteLength" : 185540,
            "uri" : "cornell_box.bin"
        }
    ]
}
